<svg xmlns="http://www.w3.org/2000/svg" viewBox="0 0 48 48" width="48" height="48">
  <defs>
    <linearGradient id="goldGrad" x1="0%" y1="0%" x2="100%" y2="100%">
      <stop offset="0%" style="stop-color:#C8A96E;stop-opacity:1" />
      <stop offset="50%" style="stop-color:#D4BA85;stop-opacity:1" />
      <stop offset="100%" style="stop-color:#C8A96E;stop-opacity:1" />
    </linearGradient>
    <linearGradient id="navyGrad" x1="0%" y1="0%" x2="0%" y2="100%">
      <stop offset="0%" style="stop-color:#2C4A6E;stop-opacity:1" />
      <stop offset="100%" style="stop-color:#1E3A5F;stop-opacity:1" />
    </linearGradient>
  </defs>
  
  <!-- Background circle -->
  <circle cx="24" cy="24" r="23" fill="url(#navyGrad)"/>
  <circle cx="24" cy="24" r="22" fill="none" stroke="url(#goldGrad)" stroke-width="0.8" opacity="0.5"/>
  
  <!-- Pillow icon -->
  <g transform="translate(10, 10)">
    <path d="M24 8 C24 3.5, 20 0, 14 0 L10 0 C4 0, 0 3.5, 0 8 C0 12, 2 16, 6 18 L8 19 C10 20, 14 20, 16 19 L18 18 C22 16, 24 12, 24 8 Z" fill="url(#goldGrad)" opacity="0.9"/>
    <path d="M20 8 C20 5, 17 3, 12 3 L8 3 C4 3, 2 5, 2 8 C2 10.5, 3.5 13, 6 14.5 L7 15 C9 16, 13 16, 15 15 L16 14.5 C18.5 13, 20 10.5, 20 8 Z" fill="url(#navyGrad)" opacity="0.6"/>
    <path d="M6 10 Q12 14 18 10" fill="none" stroke="url(#goldGrad)" stroke-width="0.8" stroke-dasharray="2,1.5" opacity="0.7"/>
  </g>
</svg>